<svg xmlns="http://www.w3.org/2000/svg" width="400" height="480" viewBox="0 0 400 480" fill="none">
  <defs>
    <linearGradient id="bg" x1="0" y1="0" x2="400" y2="480" gradientUnits="userSpaceOnUse">
      <stop stop-color="#EEF2FF"/>
      <stop offset="0.5" stop-color="#FDF4FF"/>
      <stop offset="1" stop-color="#ECFDF5"/>
    </linearGradient>
    <linearGradient id="face" x1="120" y1="100" x2="280" y2="320" gradientUnits="userSpaceOnUse">
      <stop stop-color="#FDE68A"/>
      <stop offset="1" stop-color="#FBBF24"/>
    </linearGradient>
  </defs>
  <rect width="400" height="480" rx="32" fill="url(#bg)"/>
  <circle cx="80" cy="90" r="40" fill="#A5B4FC" opacity="0.9"/>
  <circle cx="340" cy="120" r="28" fill="#F9A8D4" opacity="0.85"/>
  <circle cx="320" cy="380" r="52" fill="#6EE7B7" opacity="0.75"/>
  <ellipse cx="200" cy="240" rx="88" ry="100" fill="url(#face)"/>
  <path d="M140 230 Q200 200 260 230" stroke="#1E293B" stroke-width="4" fill="none" stroke-linecap="round"/>
  <ellipse cx="168" cy="218" rx="10" ry="12" fill="#1E293B"/>
  <ellipse cx="232" cy="218" rx="10" ry="12" fill="#1E293B"/>
  <path d="M175 275 Q200 295 225 275" stroke="#1E293B" stroke-width="3" fill="none" stroke-linecap="round"/>
  <rect x="95" y="340" width="210" height="100" rx="16" fill="#FFFFFF" stroke="#C7D2FE" stroke-width="3"/>
  <path d="M115 365h60M115 385h140M115 405h90" stroke="#6366F1" stroke-width="5" stroke-linecap="round"/>
  <rect x="60" y="160" width="48" height="56" rx="8" fill="#6366F1" opacity="0.25"/>
  <text x="72" y="198" font-family="ui-monospace,monospace" font-size="28" fill="#4338CA">&lt;/&gt;</text>
</svg>
