<svg xmlns="http://www.w3.org/2000/svg" width="640" height="400" viewBox="0 0 640 400" fill="none">
  <defs>
    <linearGradient id="a1" x1="0" y1="0" x2="640" y2="400" gradientUnits="userSpaceOnUse">
      <stop stop-color="#EDE9FE"/>
      <stop offset="0.4" stop-color="#DDD6FE"/>
      <stop offset="1" stop-color="#C4B5FD"/>
    </linearGradient>
  </defs>
  <rect width="640" height="400" fill="url(#a1)"/>
  <circle cx="320" cy="200" r="100" stroke="#7C3AED" stroke-width="3" fill="#FFF" opacity="0.7"/>
  <circle cx="320" cy="200" r="64" stroke="#8B5CF6" stroke-width="2" fill="none" opacity="0.8"/>
  <circle cx="320" cy="200" r="12" fill="#6D28D9"/>
  <line x1="320" y1="100" x2="320" y2="140" stroke="#7C3AED" stroke-width="3"/>
  <line x1="320" y1="260" x2="320" y2="300" stroke="#7C3AED" stroke-width="3"/>
  <line x1="220" y1="200" x2="180" y2="200" stroke="#7C3AED" stroke-width="3"/>
  <line x1="420" y1="200" x2="460" y2="200" stroke="#7C3AED" stroke-width="3"/>
  <line x1="250" y1="130" x2="220" y2="100" stroke="#A78BFA" stroke-width="2"/>
  <line x1="390" y1="130" x2="420" y2="100" stroke="#A78BFA" stroke-width="2"/>
  <line x1="250" y1="270" x2="220" y2="300" stroke="#A78BFA" stroke-width="2"/>
  <line x1="390" y1="270" x2="420" y2="300" stroke="#A78BFA" stroke-width="2"/>
  <circle cx="180" cy="100" r="14" fill="#EC4899" opacity="0.85"/>
  <circle cx="460" cy="100" r="14" fill="#10B981" opacity="0.85"/>
  <circle cx="180" cy="300" r="14" fill="#F59E0B" opacity="0.85"/>
  <circle cx="460" cy="300" r="14" fill="#3B82F6" opacity="0.85"/>
  <rect x="100" y="340" width="440" height="36" rx="10" fill="#FFF" opacity="0.8"/>
  <path d="M120 358h200" stroke="#7C3AED" stroke-width="4" stroke-linecap="round"/>
</svg>
