<svg xmlns="http://www.w3.org/2000/svg" width="640" height="400" viewBox="0 0 640 400" fill="none">
  <defs>
    <linearGradient id="w1" x1="0" y1="0" x2="640" y2="400" gradientUnits="userSpaceOnUse">
      <stop stop-color="#E0F2FE"/>
      <stop offset="0.5" stop-color="#C4B5FD"/>
      <stop offset="1" stop-color="#FBCFE8"/>
    </linearGradient>
  </defs>
  <rect width="640" height="400" fill="url(#w1)"/>
  <rect x="100" y="60" width="440" height="280" rx="18" fill="#FFF" opacity="0.96"/>
  <rect x="100" y="60" width="440" height="44" rx="18" fill="#06B6D4" opacity="0.9"/>
  <rect x="100" y="88" width="440" height="16" fill="#06B6D4" opacity="0.9"/>
  <circle cx="128" cy="82" r="7" fill="#FFF" opacity="0.85"/>
  <circle cx="150" cy="82" r="7" fill="#FFF" opacity="0.65"/>
  <circle cx="172" cy="82" r="7" fill="#FFF" opacity="0.45"/>
  <rect x="200" y="74" width="200" height="16" rx="8" fill="#FFF" opacity="0.75"/>
  <rect x="140" y="130" width="360" height="24" rx="6" fill="#7C3AED" opacity="0.25"/>
  <rect x="140" y="170" width="280" height="14" rx="4" fill="#64748B" opacity="0.35"/>
  <rect x="140" y="196" width="320" height="14" rx="4" fill="#64748B" opacity="0.28"/>
  <rect x="140" y="222" width="240" height="14" rx="4" fill="#64748B" opacity="0.22"/>
  <rect x="140" y="260" width="120" height="36" rx="10" fill="#06B6D4" opacity="0.85"/>
  <rect x="280" y="260" width="120" height="36" rx="10" fill="#EC4899" opacity="0.7"/>
  <circle cx="560" cy="70" r="55" fill="#06B6D4" opacity="0.25"/>
  <circle cx="60" cy="330" r="65" fill="#A855F7" opacity="0.2"/>
</svg>
